<?xml version="1.0" encoding="UTF-8" standalone="no"?>
<!DOCTYPE svg PUBLIC "-//W3C//DTD SVG 1.1//EN" "http://www.w3.org/Graphics/SVG/1.1/DTD/svg11.dtd">
<svg width="100%" height="100%" viewBox="0 0 319 212" version="1.1" xmlns="http://www.w3.org/2000/svg" xmlns:xlink="http://www.w3.org/1999/xlink" xml:space="preserve" xmlns:serif="http://www.serif.com/" style="fill-rule:evenodd;clip-rule:evenodd;stroke-linecap:square;stroke-linejoin:round;stroke-miterlimit:1.5;">
    <g transform="matrix(1,0,0,1,-82.4667,-47.612)">
        <g transform="matrix(1.33589,-0.295502,0.295502,1.33589,-50.8799,76.8705)">
            <text x="106.799px" y="79.842px" style="font-family:'TopSecret', 'Top Secret';font-size:50px;fill:white;">ULTRA</text>
            <text x="79.723px" y="133.846px" style="font-family:'TopSecret', 'Top Secret';font-size:50px;fill:rgb(174,26,0);">SECRETO</text>
        </g>
        <g transform="matrix(0.0910801,0,0,0.0910801,312.273,220.125)">
            <g transform="matrix(0.996435,0,0,2.2,-1135.53,-106.097)">
                <path d="M781.784,85.11C781.784,80.181 779.821,76.282 775.896,73.413C771.971,70.545 766.886,68.383 760.642,66.928C754.397,65.474 747.261,64.545 739.232,64.14C731.204,63.736 723.086,63.534 714.879,63.534L693.201,63.534C690.525,63.534 687.849,63.575 685.173,63.656C682.497,63.736 679.731,63.736 676.877,63.656C673.843,63.575 670.9,63.534 668.045,63.534L653.861,63.534C652.434,63.534 651.453,63.696 650.917,64.019C650.382,64.342 650.382,64.706 650.917,65.11C651.809,65.999 653.281,66.545 655.333,66.747C657.385,66.949 659.481,67.13 661.622,67.292C662.871,67.373 664.12,67.474 665.369,67.595C666.618,67.716 667.733,67.959 668.714,68.322C669.695,68.686 670.498,69.231 671.123,69.959C671.747,70.686 672.059,71.656 672.059,72.868L672.059,140.504C672.059,142.524 671.97,144.14 671.792,145.353C671.613,146.565 670.989,147.534 669.918,148.262C668.848,148.989 667.242,149.555 665.101,149.959C662.96,150.363 660.016,150.726 656.27,151.05C654.486,151.211 653.638,151.595 653.727,152.201C653.817,152.807 654.753,153.151 656.537,153.231C667.421,153.474 678.259,153.555 689.053,153.474C699.847,153.393 710.597,153.353 721.302,153.353C722.55,153.353 723.487,153.211 724.112,152.928C724.736,152.646 724.781,152.302 724.245,151.898C723.353,151.009 722.015,150.504 720.231,150.383C718.447,150.262 716.306,150.161 713.808,150.08C712.381,149.999 710.775,149.898 708.991,149.777C707.207,149.656 705.869,149.393 704.977,148.989C704.62,148.827 704.174,148.302 703.639,147.413C703.103,146.524 702.613,145.555 702.167,144.504C701.721,143.454 701.319,142.464 700.962,141.534C700.606,140.605 700.427,139.979 700.427,139.656L700.427,69.959C702.925,69.555 705.601,69.191 708.456,68.868C711.31,68.545 714.254,68.383 717.287,68.383C723.532,68.383 729.107,69.05 734.014,70.383C738.92,71.716 743.068,73.433 746.458,75.534C749.848,77.635 752.435,80.019 754.219,82.686C756.003,85.353 756.895,88.019 756.895,90.686C756.895,96.585 753.193,101.191 745.789,104.504C738.385,107.817 728.081,109.474 714.879,109.474L712.202,109.474C711.31,109.474 710.418,109.433 709.526,109.353C708.634,109.353 707.921,109.494 707.385,109.777C706.85,110.06 706.493,110.423 706.315,110.868C706.136,111.312 706.181,111.716 706.449,112.08C706.716,112.443 707.296,112.666 708.188,112.747C713.005,113.393 718.179,113.716 723.71,113.716C732.096,113.716 739.857,112.888 746.993,111.231C754.13,109.575 760.285,107.393 765.459,104.686C770.633,101.979 774.647,98.928 777.502,95.534C780.357,92.14 781.784,88.666 781.784,85.11Z" style="fill:white;fill-rule:nonzero;"/>
                <path d="M993.472,153.11L991.866,151.05C985.086,151.534 978.396,150.989 971.795,149.413C965.193,147.837 958.726,145.696 952.392,142.989C946.058,140.282 939.992,137.211 934.194,133.777C928.395,130.342 922.82,127.009 917.468,123.777C914.256,121.837 911.089,119.898 907.967,117.959C904.845,116.019 901.856,114.363 899.002,112.989C902.927,111.292 906.718,109.413 910.376,107.353C914.033,105.292 917.289,103.09 920.144,100.747C922.998,98.403 925.318,95.999 927.102,93.534C928.886,91.07 929.778,88.585 929.778,86.08C929.778,85.514 929.734,84.908 929.644,84.262C929.555,83.615 929.332,83.09 928.975,82.686C926.834,78.646 923.534,75.393 919.073,72.928C914.613,70.464 909.305,68.565 903.15,67.231C896.995,65.898 890.304,65.009 883.078,64.565C875.853,64.12 868.493,63.898 861,63.898L846.816,63.898C845.21,63.898 843.649,63.918 842.132,63.959C840.616,63.999 839.055,64.019 837.449,64.019C834.594,64.019 831.829,64.039 829.153,64.08C826.477,64.12 823.622,64.1 820.589,64.019L798.109,64.019C796.86,64.019 795.968,64.161 795.433,64.443C794.897,64.726 794.897,65.07 795.433,65.474C795.968,66.282 797.127,66.807 798.912,67.05C800.696,67.292 802.837,67.454 805.334,67.534C806.583,67.615 807.832,67.716 809.081,67.837C810.33,67.959 811.49,68.201 812.56,68.565C813.631,68.928 814.523,69.514 815.236,70.322C815.95,71.13 816.307,72.221 816.307,73.595L816.307,140.747C816.307,142.686 816.218,144.282 816.039,145.534C815.861,146.787 815.281,147.777 814.3,148.504C813.319,149.231 811.757,149.797 809.616,150.201C807.475,150.605 804.442,150.969 800.517,151.292C798.733,151.454 797.886,151.837 797.975,152.443C798.064,153.05 799.001,153.393 800.785,153.474C811.668,153.716 822.551,153.837 833.435,153.837C844.318,153.837 855.201,153.837 866.084,153.837C867.512,153.837 868.493,153.635 869.028,153.231C869.563,152.827 869.296,152.423 868.225,152.019C866.62,151.373 864.791,150.969 862.739,150.807C860.687,150.646 858.68,150.524 856.718,150.443C855.826,150.363 854.621,150.282 853.105,150.201C851.588,150.12 850.384,149.999 849.492,149.837C848.957,149.676 848.421,149.151 847.886,148.262C847.351,147.373 846.816,146.383 846.28,145.292C845.745,144.201 845.344,143.171 845.076,142.201C844.809,141.231 844.675,140.545 844.675,140.14L844.675,117.595C846.102,117.514 847.619,117.474 849.224,117.474L854.041,117.474C857.788,117.474 862.025,117.635 866.753,117.959C871.481,118.282 875.451,119.09 878.663,120.383C882.945,122.08 887.093,124.161 891.107,126.625C895.121,129.09 899.18,131.615 903.284,134.201C907.387,136.868 911.625,139.494 915.996,142.08C920.367,144.666 925.095,146.989 930.18,149.05C935.264,151.11 940.795,152.767 946.772,154.019C952.749,155.272 959.484,155.898 966.977,155.898C971.616,155.898 976.166,155.656 980.626,155.171C985.086,154.686 989.368,153.999 993.472,153.11ZM900.607,92.262C900.607,93.716 900.384,95.211 899.938,96.747C899.492,98.282 898.734,99.777 897.664,101.231C896.593,102.686 895.21,104.039 893.516,105.292C891.821,106.545 889.724,107.615 887.226,108.504C884.729,109.393 881.517,109.918 877.592,110.08C873.667,110.241 870.188,110.322 867.155,110.322C859.483,110.322 852.079,110.08 844.942,109.595L844.942,69.716C849.76,68.989 854.755,68.625 859.929,68.625C866.709,68.625 872.641,69.332 877.726,70.747C882.811,72.161 887.048,73.979 890.438,76.201C893.828,78.423 896.37,80.949 898.065,83.777C899.76,86.605 900.607,89.433 900.607,92.262Z" style="fill:white;fill-rule:nonzero;"/>
                <path d="M1169.83,111.171C1169.83,105.272 1167.83,99.312 1163.81,93.292C1159.8,87.272 1153.69,81.837 1145.48,76.989C1137.27,72.14 1126.92,68.181 1114.44,65.11C1101.95,62.039 1087.32,60.504 1070.55,60.504C1068.05,60.504 1065.42,60.565 1062.65,60.686C1059.89,60.807 1057.26,60.989 1054.76,61.231C1037.99,62.848 1023.71,65.009 1011.94,67.716C1000.16,70.423 990.528,73.797 983.035,77.837C975.541,81.878 970.1,86.646 966.71,92.14C963.32,97.635 961.625,103.938 961.625,111.05C961.625,114.605 963.052,118.161 965.907,121.716C968.762,125.272 972.597,128.686 977.415,131.959C982.232,135.231 987.896,138.282 994.409,141.11C1000.92,143.938 1007.83,146.383 1015.15,148.443C1022.46,150.504 1030.05,152.14 1037.9,153.353C1045.75,154.565 1053.33,155.171 1060.64,155.171C1061.71,155.171 1063.05,155.171 1064.66,155.171C1066.44,155.171 1068.18,155.151 1069.88,155.11C1071.57,155.07 1073.18,155.009 1074.69,154.928C1076.21,154.848 1077.51,154.767 1078.58,154.686C1091.06,153.393 1102.84,151.575 1113.9,149.231C1124.96,146.888 1134.64,143.938 1142.94,140.383C1151.23,136.827 1157.79,132.625 1162.61,127.777C1167.42,122.928 1169.83,117.393 1169.83,111.171ZM1142.8,110.928C1142.8,116.019 1141.2,120.888 1137.99,125.534C1134.78,130.181 1130.09,134.241 1123.94,137.716C1117.78,141.191 1110.15,143.959 1101.06,146.019C1091.96,148.08 1081.43,149.11 1069.48,149.11C1056.81,149.11 1045.52,147.797 1035.62,145.171C1025.72,142.545 1017.38,139.13 1010.6,134.928C1003.82,130.726 998.69,125.999 995.211,120.747C991.732,115.494 989.993,110.241 989.993,104.989C989.993,99.817 991.643,94.949 994.944,90.383C998.244,85.817 1003.06,81.817 1009.39,78.383C1015.73,74.949 1023.49,72.241 1032.68,70.262C1041.87,68.282 1052.44,67.292 1064.39,67.292C1077.06,67.292 1088.25,68.585 1097.98,71.171C1107.7,73.757 1115.91,77.11 1122.6,81.231C1129.29,85.353 1134.33,90.019 1137.72,95.231C1141.11,100.443 1142.8,105.676 1142.8,110.928Z" style="fill:white;fill-rule:nonzero;"/>
                <path d="M1254.13,151.534C1252.53,150.807 1250.75,150.383 1248.78,150.262C1246.82,150.14 1244.86,150.08 1242.89,150.08C1242,150.08 1240.84,149.999 1239.41,149.837C1237.99,149.676 1236.83,149.514 1235.94,149.353C1235.4,149.029 1234.82,148.403 1234.2,147.474C1233.57,146.545 1232.99,145.555 1232.46,144.504C1231.92,143.454 1231.48,142.464 1231.12,141.534C1230.76,140.605 1230.58,139.938 1230.58,139.534L1230.58,72.747C1230.58,70.241 1232.1,68.585 1235.13,67.777C1238.17,66.969 1242.09,66.363 1246.91,65.959C1248.69,65.797 1249.5,65.413 1249.32,64.807C1249.14,64.201 1248.16,63.858 1246.37,63.777C1241.2,63.615 1236.12,63.575 1231.12,63.656C1226.12,63.736 1221.13,63.777 1216.13,63.777C1210.96,63.777 1205.83,63.757 1200.74,63.716C1195.66,63.676 1190.53,63.736 1185.36,63.898C1183.75,63.979 1182.95,64.342 1182.95,64.989C1182.95,65.635 1183.75,65.999 1185.36,66.08C1190,66.322 1194.01,66.908 1197.4,67.837C1200.79,68.767 1202.48,70.443 1202.48,72.868L1202.48,139.05C1202.48,139.858 1202.35,140.848 1202.08,142.019C1201.82,143.191 1201.28,144.342 1200.48,145.474C1199.67,146.605 1198.65,147.575 1197.4,148.383C1196.15,149.191 1194.54,149.595 1192.58,149.595C1192.05,149.595 1190.58,149.736 1188.17,150.019C1185.76,150.302 1184.11,150.363 1183.21,150.201C1182.5,150.039 1181.79,150.06 1181.07,150.262C1180.36,150.464 1179.83,150.726 1179.47,151.05C1179.11,151.373 1178.93,151.696 1178.93,152.019C1178.93,152.342 1179.29,152.585 1180,152.747C1181.25,152.989 1185.04,153.05 1191.38,152.928C1197.71,152.807 1204.8,152.747 1212.65,152.747C1217.47,152.747 1222.2,152.767 1226.84,152.807C1231.48,152.848 1235.67,152.908 1239.41,152.989C1243.16,153.07 1246.19,153.13 1248.51,153.171C1250.83,153.211 1251.99,153.231 1251.99,153.231C1253.42,153.231 1254.36,153.05 1254.8,152.686C1255.25,152.322 1255.03,151.938 1254.13,151.534Z" style="fill:white;fill-rule:nonzero;"/>
                <path d="M1405.34,127.05C1405.34,124.06 1404.27,121.252 1402.13,118.625C1399.99,115.999 1397,113.635 1393.16,111.534C1389.33,109.433 1384.78,107.595 1379.52,106.019C1374.25,104.443 1368.59,103.211 1362.52,102.322C1365.55,101.029 1368.5,99.615 1371.35,98.08C1374.21,96.545 1376.75,94.928 1378.98,93.231C1381.21,91.534 1382.99,89.777 1384.33,87.959C1385.67,86.14 1386.34,84.262 1386.34,82.322C1386.34,79.009 1384.56,76.14 1380.99,73.716C1377.42,71.292 1372.91,69.272 1367.47,67.656C1362.03,66.039 1355.96,64.848 1349.27,64.08C1342.58,63.312 1336.12,62.928 1329.87,62.928C1325.77,62.928 1321.89,62.989 1318.23,63.11C1314.57,63.231 1310.96,63.373 1307.39,63.534C1303.64,63.696 1299.99,63.837 1296.42,63.959C1292.85,64.08 1289.28,64.14 1285.71,64.14C1280.54,64.14 1275.54,63.858 1270.73,63.292C1269.3,63.211 1268.18,63.373 1267.38,63.777C1266.58,64.181 1266.62,64.585 1267.52,64.989C1268.94,65.878 1270.59,66.423 1272.47,66.625C1274.34,66.827 1276.44,67.009 1278.76,67.171C1279.83,67.252 1280.94,67.332 1282.1,67.413C1283.26,67.494 1284.33,67.716 1285.31,68.08C1286.29,68.443 1287.05,68.989 1287.59,69.716C1288.12,70.443 1288.39,71.413 1288.39,72.625L1288.39,139.534C1288.39,141.555 1288.26,143.171 1287.99,144.383C1287.72,145.595 1287.01,146.565 1285.85,147.292C1284.69,148.019 1282.99,148.625 1280.76,149.11C1278.53,149.595 1275.54,150.12 1271.8,150.686L1272.87,152.747L1314.62,152.747C1316.76,152.747 1319.08,152.787 1321.58,152.868C1324.79,152.949 1328.09,153.009 1331.48,153.05C1334.87,153.09 1338.08,153.11 1341.11,153.11C1344.14,153.11 1346.91,153.09 1349.41,153.05C1351.9,153.009 1353.96,152.908 1355.56,152.747C1362.52,152.181 1369.03,151.11 1375.1,149.534C1381.16,147.959 1386.43,146.039 1390.89,143.777C1395.35,141.514 1398.87,138.949 1401.46,136.08C1404.05,133.211 1405.34,130.201 1405.34,127.05ZM1360.38,84.14C1360.38,87.534 1359.31,90.302 1357.17,92.443C1355.03,94.585 1351.99,96.262 1348.07,97.474C1344.14,98.686 1339.55,99.494 1334.29,99.898C1329.02,100.302 1323.18,100.504 1316.76,100.504L1316.76,68.747C1320.68,68.181 1324.96,67.898 1329.6,67.898C1334.42,67.898 1338.75,68.342 1342.58,69.231C1346.42,70.12 1349.63,71.312 1352.22,72.807C1354.8,74.302 1356.81,76.019 1358.24,77.959C1359.67,79.898 1360.38,81.959 1360.38,84.14ZM1378.31,130.686C1378.31,133.029 1377.46,135.252 1375.77,137.353C1374.07,139.454 1371.66,141.312 1368.54,142.928C1365.42,144.545 1361.67,145.817 1357.3,146.747C1352.93,147.676 1348.16,148.14 1342.99,148.14C1340.49,148.14 1337.68,147.938 1334.56,147.534C1331.43,147.13 1328.53,146.524 1325.86,145.716C1323.18,144.908 1320.95,143.959 1319.17,142.868C1317.38,141.777 1316.49,140.545 1316.49,139.171L1316.49,106.443C1321.49,106.443 1326.79,106.545 1332.41,106.747C1338.03,106.949 1342.99,107.534 1347.27,108.504C1351.73,109.474 1355.88,110.747 1359.71,112.322C1363.55,113.898 1366.85,115.656 1369.61,117.595C1372.38,119.534 1374.52,121.615 1376.04,123.837C1377.55,126.06 1378.31,128.342 1378.31,130.686Z" style="fill:white;fill-rule:nonzero;"/>
                <path d="M1488.84,151.534C1487.23,150.807 1485.45,150.383 1483.49,150.262C1481.52,150.14 1479.56,150.08 1477.6,150.08C1476.71,150.08 1475.55,149.999 1474.12,149.837C1472.69,149.676 1471.53,149.514 1470.64,149.353C1470.1,149.029 1469.53,148.403 1468.9,147.474C1468.28,146.545 1467.7,145.555 1467.16,144.504C1466.62,143.454 1466.18,142.464 1465.82,141.534C1465.47,140.605 1465.29,139.938 1465.29,139.534L1465.29,72.747C1465.29,70.241 1466.8,68.585 1469.84,67.777C1472.87,66.969 1476.8,66.363 1481.61,65.959C1483.4,65.797 1484.2,65.413 1484.02,64.807C1483.84,64.201 1482.86,63.858 1481.08,63.777C1475.9,63.615 1470.82,63.575 1465.82,63.656C1460.83,63.736 1455.83,63.777 1450.84,63.777C1445.66,63.777 1440.53,63.757 1435.45,63.716C1430.36,63.676 1425.23,63.736 1420.06,63.898C1418.45,63.979 1417.65,64.342 1417.65,64.989C1417.65,65.635 1418.45,65.999 1420.06,66.08C1424.7,66.322 1428.71,66.908 1432.1,67.837C1435.49,68.767 1437.19,70.443 1437.19,72.868L1437.19,139.05C1437.19,139.858 1437.05,140.848 1436.79,142.019C1436.52,143.191 1435.98,144.342 1435.18,145.474C1434.38,146.605 1433.35,147.575 1432.1,148.383C1430.85,149.191 1429.25,149.595 1427.29,149.595C1426.75,149.595 1425.28,149.736 1422.87,150.019C1420.46,150.302 1418.81,150.363 1417.92,150.201C1417.2,150.039 1416.49,150.06 1415.78,150.262C1415.06,150.464 1414.53,150.726 1414.17,151.05C1413.82,151.373 1413.64,151.696 1413.64,152.019C1413.64,152.342 1413.99,152.585 1414.71,152.747C1415.96,152.989 1419.75,153.05 1426.08,152.928C1432.41,152.807 1439.51,152.747 1447.36,152.747C1452.17,152.747 1456.9,152.767 1461.54,152.807C1466.18,152.848 1470.37,152.908 1474.12,152.989C1477.87,153.07 1480.9,153.13 1483.22,153.171C1485.54,153.211 1486.7,153.231 1486.7,153.231C1488.12,153.231 1489.06,153.05 1489.51,152.686C1489.95,152.322 1489.73,151.938 1488.84,151.534Z" style="fill:white;fill-rule:nonzero;"/>
                <path d="M1702.67,107.171L1702.67,102.686C1702.67,100.989 1702.49,99.373 1702.13,97.837C1701.6,94.848 1699.63,91.898 1696.24,88.989C1692.85,86.08 1688.62,83.332 1683.53,80.747C1678.45,78.161 1672.6,75.797 1666,73.656C1659.4,71.514 1652.58,69.656 1645.53,68.08C1638.48,66.504 1631.43,65.272 1624.39,64.383C1617.34,63.494 1610.69,63.05 1604.45,63.05C1599.99,63.05 1595.26,63.07 1590.27,63.11C1585.27,63.151 1580.45,63.252 1575.82,63.413C1570.82,63.575 1566,63.716 1561.36,63.837C1556.72,63.959 1552,64.019 1547.18,64.019C1543.25,64.019 1539.46,63.979 1535.81,63.898C1532.15,63.817 1528.36,63.696 1524.43,63.534C1521.4,63.454 1518.28,63.373 1515.07,63.292C1511.85,63.211 1508.64,63.171 1505.43,63.171C1504.36,63.171 1503.51,63.332 1502.89,63.656C1502.26,63.979 1502.22,64.342 1502.75,64.747C1503.29,65.393 1504.36,65.817 1505.97,66.019C1507.57,66.221 1509.44,66.403 1511.59,66.565C1512.84,66.646 1514.17,66.767 1515.6,66.928C1517.03,67.09 1518.37,67.373 1519.61,67.777C1520.86,68.181 1521.89,68.747 1522.69,69.474C1523.5,70.201 1523.9,71.171 1523.9,72.383L1523.9,139.413C1523.9,141.191 1523.72,142.706 1523.36,143.959C1523,145.211 1522.25,146.262 1521.09,147.11C1519.93,147.959 1518.28,148.666 1516.13,149.231C1513.99,149.797 1511.14,150.241 1507.57,150.565C1505.79,150.726 1505.03,151.13 1505.3,151.777C1505.56,152.423 1506.59,152.747 1508.37,152.747C1515.51,152.585 1522.69,152.605 1529.92,152.807C1537.14,153.009 1544.33,153.231 1551.46,153.474C1557.53,153.716 1563.68,153.918 1569.93,154.08C1576.17,154.241 1582.42,154.322 1588.66,154.322C1605.79,154.322 1621.36,153.373 1635.36,151.474C1649.37,149.575 1661.36,146.686 1671.36,142.807C1681.35,138.928 1689.06,134.039 1694.5,128.14C1699.95,122.241 1702.67,115.252 1702.67,107.171ZM1674.83,111.656C1674.83,117.797 1672.69,123.171 1668.41,127.777C1664.13,132.383 1658.2,136.201 1650.62,139.231C1643.03,142.262 1633.89,144.545 1623.18,146.08C1612.48,147.615 1600.7,148.383 1587.86,148.383C1583.04,148.383 1577.64,148.161 1571.67,147.716C1565.69,147.272 1560.65,146.403 1556.55,145.11C1555.65,144.787 1554.9,144.181 1554.27,143.292C1553.65,142.403 1553.16,141.454 1552.8,140.443C1552.44,139.433 1552.22,138.403 1552.13,137.353C1552.04,136.302 1552,135.454 1552,134.807L1552,70.686C1556.28,70.039 1560.61,69.595 1564.98,69.353C1569.35,69.11 1573.85,68.989 1578.49,68.989C1592.59,68.989 1605.57,69.999 1617.43,72.019C1629.29,74.039 1639.46,76.888 1647.94,80.565C1656.41,84.241 1663.01,88.706 1667.74,93.959C1672.47,99.211 1674.83,105.11 1674.83,111.656Z" style="fill:white;fill-rule:nonzero;"/>
                <path d="M1836.75,56.14L1831.66,55.05C1829.7,56.1 1827.65,56.949 1825.51,57.595C1823.36,58.241 1820.95,58.565 1818.28,58.565C1815.78,58.565 1813.19,58.342 1810.52,57.898C1807.84,57.454 1805.26,56.949 1802.76,56.383C1799.9,55.736 1797.05,55.191 1794.19,54.747C1791.34,54.302 1788.39,54.08 1785.36,54.08C1782.33,54.08 1779.7,54.363 1777.47,54.928C1775.24,55.494 1773.32,56.221 1771.71,57.11C1770.11,57.999 1768.73,58.989 1767.57,60.08C1766.4,61.171 1765.47,62.241 1764.76,63.292C1764.4,63.858 1764.98,64.282 1766.49,64.565C1768.01,64.848 1769.3,64.747 1770.38,64.262C1772.16,63.13 1774.17,62.181 1776.4,61.413C1778.63,60.646 1781.17,60.262 1784.02,60.262C1786.52,60.262 1789.15,60.504 1791.92,60.989C1794.68,61.474 1797.32,62.039 1799.81,62.686C1802.67,63.332 1805.48,63.878 1808.24,64.322C1811.01,64.767 1813.91,64.989 1816.94,64.989C1819.8,64.989 1822.34,64.706 1824.57,64.14C1826.8,63.575 1828.72,62.868 1830.32,62.019C1831.93,61.171 1833.22,60.221 1834.2,59.171C1835.18,58.12 1836.03,57.11 1836.75,56.14ZM1884.38,143.898C1883.67,143.736 1882.6,143.555 1881.17,143.353C1879.74,143.151 1878.58,142.969 1877.69,142.807C1875.02,142.403 1872.56,141.959 1870.33,141.474C1868.1,140.989 1866.27,140.181 1864.85,139.05C1858.07,133.474 1851.91,127.534 1846.38,121.231C1840.85,114.928 1835.76,108.827 1831.12,102.928C1826.66,97.272 1822.03,91.575 1817.21,85.837C1812.39,80.1 1807.13,74.726 1801.42,69.716C1800.7,69.312 1799.63,69.11 1798.21,69.11C1796.96,69.11 1796.07,69.353 1795.53,69.837C1792.5,73.635 1789.47,77.393 1786.43,81.11C1783.4,84.827 1780.37,88.585 1777.33,92.383C1773.77,96.747 1770.15,101.292 1766.49,106.019C1762.84,110.747 1759.13,115.292 1755.39,119.656C1754.85,120.302 1754.23,121.05 1753.52,121.898C1752.8,122.747 1752.18,123.494 1751.64,124.14C1749.32,126.726 1747.05,129.312 1744.82,131.898C1742.59,134.484 1740.05,136.989 1737.19,139.413C1735.58,140.706 1733.93,141.656 1732.24,142.262C1730.54,142.868 1728.18,143.13 1725.15,143.05L1719.8,142.928C1718.01,142.848 1716.99,143.13 1716.72,143.777C1716.45,144.423 1717.21,144.827 1718.99,144.989C1722.56,145.393 1726.22,145.656 1729.96,145.777C1733.71,145.898 1737.64,145.959 1741.74,145.959C1746.2,145.959 1750.62,145.918 1754.99,145.837C1759.36,145.757 1763.77,145.635 1768.23,145.474C1770.02,145.393 1770.91,145.029 1770.91,144.383C1770.91,143.736 1770.02,143.413 1768.23,143.413C1762.88,143.171 1760.2,141.676 1760.2,138.928C1760.2,137.151 1760.96,135.211 1762.48,133.11C1764,131.009 1765.74,129.029 1767.7,127.171C1769.48,125.474 1771.09,123.797 1772.52,122.14C1773.94,120.484 1774.92,118.848 1775.46,117.231L1818.01,117.231C1818.73,118.12 1819.57,119.07 1820.55,120.08C1821.54,121.09 1822.74,122.322 1824.17,123.777C1825.59,125.393 1827.11,127.07 1828.72,128.807C1830.32,130.545 1831.79,132.241 1833.13,133.898C1834.47,135.555 1835.54,137.11 1836.34,138.565C1837.15,140.019 1837.55,141.231 1837.55,142.201C1837.55,142.928 1837.28,143.413 1836.75,143.656C1835.32,143.979 1834.87,144.383 1835.41,144.868C1835.94,145.353 1836.92,145.595 1838.35,145.595C1841.92,145.595 1845.71,145.615 1849.72,145.656C1853.74,145.696 1857.44,145.757 1860.83,145.837C1864.58,145.918 1868.32,145.959 1872.07,145.959L1883.04,145.959L1884.38,143.898ZM1813.46,111.534L1778.94,111.534C1780.19,110.161 1781.08,108.969 1781.62,107.959C1782.15,106.949 1782.95,105.716 1784.02,104.262C1785.99,101.514 1787.86,98.928 1789.64,96.504C1791.43,94.08 1793.57,91.494 1796.07,88.747C1796.6,89.635 1797.23,90.443 1797.94,91.171C1800.44,94.565 1802.98,97.959 1805.57,101.353C1808.15,104.747 1810.79,108.14 1813.46,111.534Z" style="fill:white;fill-rule:nonzero;"/>
                <path d="M2108.38,111.171C2108.38,105.272 2106.37,99.312 2102.36,93.292C2098.34,87.272 2092.23,81.837 2084.03,76.989C2075.82,72.14 2065.47,68.181 2052.98,65.11C2040.49,62.039 2025.86,60.504 2009.09,60.504C2006.6,60.504 2003.96,60.565 2001.2,60.686C1998.43,60.807 1995.8,60.989 1993.3,61.231C1976.53,62.848 1962.26,65.009 1950.48,67.716C1938.71,70.423 1929.07,73.797 1921.58,77.837C1914.09,81.878 1908.65,86.646 1905.26,92.14C1901.87,97.635 1900.17,103.938 1900.17,111.05C1900.17,114.605 1901.6,118.161 1904.45,121.716C1907.31,125.272 1911.14,128.686 1915.96,131.959C1920.78,135.231 1926.44,138.282 1932.95,141.11C1939.47,143.938 1946.38,146.383 1953.69,148.443C1961.01,150.504 1968.59,152.14 1976.44,153.353C1984.29,154.565 1991.88,155.171 1999.19,155.171C2000.26,155.171 2001.6,155.171 2003.21,155.171C2004.99,155.171 2006.73,155.151 2008.42,155.11C2010.12,155.07 2011.72,155.009 2013.24,154.928C2014.76,154.848 2016.05,154.767 2017.12,154.686C2029.61,153.393 2041.39,151.575 2052.45,149.231C2063.51,146.888 2073.19,143.938 2081.48,140.383C2089.78,136.827 2096.34,132.625 2101.15,127.777C2105.97,122.928 2108.38,117.393 2108.38,111.171ZM2081.35,110.928C2081.35,116.019 2079.74,120.888 2076.53,125.534C2073.32,130.181 2068.64,134.241 2062.48,137.716C2056.33,141.191 2048.7,143.959 2039.6,146.019C2030.5,148.08 2019.98,149.11 2008.02,149.11C1995.36,149.11 1984.07,147.797 1974.17,145.171C1964.27,142.545 1955.92,139.13 1949.15,134.928C1942.37,130.726 1937.24,125.999 1933.76,120.747C1930.28,115.494 1928.54,110.241 1928.54,104.989C1928.54,99.817 1930.19,94.949 1933.49,90.383C1936.79,85.817 1941.61,81.817 1947.94,78.383C1954.28,74.949 1962.04,72.241 1971.22,70.262C1980.41,68.282 1990.98,67.292 2002.94,67.292C2015.61,67.292 2026.8,68.585 2036.52,71.171C2046.25,73.757 2054.45,77.11 2061.14,81.231C2067.84,85.353 2072.88,90.019 2076.26,95.231C2079.66,100.443 2081.35,105.676 2081.35,110.928Z" style="fill:white;fill-rule:nonzero;"/>
                <path d="M879.365,238.08C877.648,237.727 875.97,237.462 874.33,237.285C872.691,237.108 871.169,236.949 869.764,236.808C867.266,236.595 864.886,236.295 862.622,235.906C860.358,235.517 858.29,234.616 856.417,233.202C855.48,232.494 854.582,231.363 853.724,229.808C852.865,228.252 852.045,226.431 851.265,224.345C850.484,222.26 849.782,219.997 849.157,217.558C848.533,215.118 847.908,212.643 847.284,210.133C846.66,207.623 846.113,205.149 845.645,202.709C845.177,200.27 844.786,198.025 844.474,195.974C844.162,194.419 843.889,192.987 843.654,191.679C843.42,190.371 843.225,189.328 843.069,188.55C841.976,183.883 840.844,179.199 839.674,174.497C838.503,169.795 837.293,165.111 836.044,160.444C835.888,159.949 835.224,159.666 834.054,159.595C832.883,159.525 831.907,159.666 831.126,160.02C826.911,162.919 823.165,165.888 819.886,168.929C816.608,171.969 813.408,174.974 810.285,177.944L805.602,182.611C802.324,185.863 799.045,189.045 795.767,192.156C792.489,195.267 789.288,198.414 786.166,201.595C782.419,205.343 778.673,209.02 774.926,212.626C771.179,216.232 767.277,219.909 763.218,223.656C761.5,222.242 759.549,220.457 757.363,218.3C755.178,216.143 752.134,213.227 748.231,209.55C744.953,206.439 741.44,203.151 737.693,199.686C733.947,196.222 730.2,192.757 726.453,189.292C722.707,185.828 719.038,182.469 715.447,179.217C711.857,175.964 708.5,173.03 705.378,170.414C702.256,167.798 699.446,165.553 696.948,163.679C694.45,161.805 692.421,160.55 690.86,159.914C689.923,159.56 688.986,159.454 688.05,159.595C687.113,159.737 686.567,160.02 686.411,160.444C686.098,161.505 685.669,163.219 685.123,165.588C684.576,167.957 683.913,170.732 683.132,173.914C682.352,177.52 681.454,181.462 680.439,185.739C679.424,190.017 678.41,194.348 677.395,198.732C676.38,203.116 675.327,207.411 674.234,211.618C673.141,215.825 672.126,219.626 671.19,223.02C670.253,226.414 669.355,229.224 668.497,231.452C667.638,233.679 666.975,235.04 666.506,235.535C665.57,236.454 664.438,237.002 663.111,237.179C661.784,237.356 660.262,237.515 658.545,237.656C657.764,237.727 656.554,237.833 654.915,237.974C653.276,238.116 652.456,238.151 652.456,238.08C651.676,238.363 651.402,238.699 651.637,239.088C651.871,239.477 652.612,239.707 653.861,239.777C661.823,239.989 669.824,240.06 677.863,239.989C685.903,239.919 693.904,239.883 701.866,239.883C703.427,239.883 704.324,239.654 704.559,239.194C704.793,238.734 704.285,238.399 703.036,238.186C701.007,237.762 699.251,237.409 697.768,237.126C696.285,236.843 694.919,236.595 693.67,236.383L693.904,236.383C692.343,236.101 691.172,235.853 690.391,235.641C689.611,235.429 689.025,235.146 688.635,234.792C688.245,234.439 688.011,233.944 687.933,233.308C687.855,232.671 687.816,231.752 687.816,230.55L687.816,227.474C687.816,222.595 688.44,217.628 689.689,212.573C690.938,207.517 692.343,202.55 693.904,197.671C694.528,195.762 695.114,193.818 695.66,191.838C696.207,189.858 696.636,187.878 696.948,185.899C698.821,187.454 700.383,188.833 701.631,190.035C702.88,191.237 704.051,192.404 705.144,193.535C706.237,194.666 707.369,195.851 708.539,197.088C709.71,198.325 711.154,199.757 712.872,201.383C719.428,207.959 726.18,214.429 733.127,220.792C740.074,227.156 748.387,233.308 758.066,239.247C758.847,239.53 759.705,239.671 760.642,239.671C761.578,239.671 762.281,239.494 762.749,239.141C765.715,236.383 768.604,233.643 771.414,230.921C774.224,228.199 777.034,225.494 779.844,222.808C786.4,216.515 792.957,210.257 799.514,204.035C806.07,197.813 812.861,191.626 819.886,185.474C820.199,187.03 820.511,188.409 820.823,189.611C821.135,190.813 821.447,191.997 821.76,193.164C822.072,194.33 822.384,195.515 822.696,196.717C823.009,197.919 823.399,199.298 823.867,200.853C825.272,205.944 826.521,211.3 827.614,216.921C828.707,222.542 829.253,227.899 829.253,232.989C829.253,233.909 829.214,234.81 829.136,235.694C829.058,236.578 828.707,237.479 828.082,238.399C827.77,238.752 827.887,239.053 828.434,239.3C828.98,239.548 829.721,239.671 830.658,239.671C838.62,239.883 846.543,239.954 854.426,239.883C862.31,239.813 870.311,239.777 878.428,239.777L879.365,238.08Z" style="fill:white;fill-rule:nonzero;"/>
                <path d="M1070.21,239.777L1070.21,237.868C1065.68,237.727 1061.43,237.232 1057.45,236.383C1053.47,235.535 1050.39,234.085 1048.2,232.035C1044.92,228.853 1041.61,225.477 1038.25,221.906C1034.89,218.335 1031.57,214.676 1028.3,210.929C1025.02,207.181 1021.86,203.469 1018.81,199.792C1015.77,196.116 1012.84,192.58 1010.03,189.186C1008,186.712 1005.86,184.308 1003.59,181.974C1001.33,179.641 999.259,177.343 997.386,175.08C997.074,174.798 996.8,174.444 996.566,174.02C996.332,173.595 995.903,173.171 995.278,172.747C993.561,170.555 991.61,168.186 989.424,165.641C987.239,163.095 984.819,161.151 982.165,159.808C981.54,159.454 980.838,159.383 980.057,159.595C979.277,159.808 978.73,160.055 978.418,160.338C972.642,167.197 966.944,174.02 961.324,180.808C955.704,187.595 950.162,194.419 944.698,201.277C940.951,205.944 937.244,210.734 933.575,215.649C929.906,220.563 926.043,225.353 921.984,230.02C921.203,230.868 920.149,231.77 918.822,232.724C917.495,233.679 915.934,234.563 914.139,235.376C912.344,236.189 910.47,236.861 908.519,237.391C906.568,237.921 904.577,238.186 902.548,238.186C902.392,238.186 901.962,238.169 901.26,238.133C900.557,238.098 900.05,238.186 899.738,238.399C899.113,238.681 898.957,238.964 899.269,239.247C899.425,239.388 899.66,239.53 899.972,239.671C900.284,239.813 900.44,239.883 900.44,239.883L949.147,239.989C950.708,239.989 951.528,239.724 951.606,239.194C951.684,238.664 950.942,238.328 949.381,238.186C947.04,238.045 944.659,237.78 942.239,237.391C939.819,237.002 938.61,236.207 938.61,235.005C938.61,234.085 939.273,232.477 940.6,230.179C941.927,227.881 943.527,225.441 945.4,222.861C947.274,220.28 949.186,217.77 951.138,215.33C953.089,212.891 954.689,211.035 955.938,209.762L1002.07,209.762C1005.66,214.217 1009.37,218.671 1013.19,223.126C1017.02,227.58 1020.8,232.035 1024.55,236.489L1016.35,238.399C1015.42,238.752 1015.18,239.07 1015.65,239.353C1016.12,239.636 1016.98,239.813 1018.23,239.883C1021.5,240.025 1025.56,240.06 1030.4,239.989C1035.24,239.919 1039.38,239.883 1042.81,239.883C1047.5,239.883 1052.1,239.901 1056.63,239.936C1061.16,239.972 1065.68,239.919 1070.21,239.777ZM997.386,204.141L959.685,204.141C963.119,199.686 966.28,195.426 969.169,191.361C972.057,187.295 975.062,183.035 978.184,178.58L997.386,204.141Z" style="fill:white;fill-rule:nonzero;"/>
                <path d="M1174.42,218.777C1174.42,216.232 1173.36,213.863 1171.26,211.671C1169.15,209.479 1166.38,207.411 1162.94,205.467C1159.51,203.522 1155.61,201.666 1151.23,199.899C1146.86,198.131 1142.41,196.399 1137.89,194.702C1134.14,193.217 1130.43,191.767 1126.76,190.353C1123.1,188.939 1119.82,187.472 1116.93,185.952C1114.04,184.431 1111.74,182.858 1110.02,181.232C1108.3,179.606 1107.44,177.873 1107.44,176.035C1107.44,174.267 1108.15,172.659 1109.55,171.209C1110.96,169.76 1112.87,168.505 1115.29,167.444C1117.71,166.383 1120.52,165.57 1123.72,165.005C1126.92,164.439 1130.32,164.156 1133.91,164.156C1137.65,164.156 1141.13,164.421 1144.33,164.952C1147.53,165.482 1150.38,166.242 1152.87,167.232C1155.37,168.222 1157.28,169.424 1158.61,170.838C1159.94,172.252 1160.6,173.843 1160.6,175.611C1160.6,176.106 1161.23,176.424 1162.47,176.565C1163.72,176.707 1164.74,176.601 1165.52,176.247C1167.7,174.904 1168.95,173.224 1169.27,171.209C1169.58,169.194 1169.73,167.232 1169.73,165.323L1169.73,161.505C1169.73,161.01 1169.11,160.691 1167.86,160.55C1160.68,159.631 1152.95,159.171 1144.68,159.171C1138.75,159.171 1132.27,159.525 1125.24,160.232C1118.22,160.939 1111.66,162.053 1105.57,163.573C1099.48,165.093 1094.37,167.02 1090.23,169.353C1086.1,171.686 1084.03,174.479 1084.03,177.732C1084.03,179.924 1085.08,182.063 1087.19,184.149C1089.3,186.234 1092.07,188.303 1095.5,190.353C1098.94,192.404 1102.88,194.419 1107.33,196.399C1111.78,198.378 1116.27,200.358 1120.79,202.338L1120.79,202.232C1124.85,204.07 1128.83,205.873 1132.74,207.641C1136.64,209.409 1140.11,211.159 1143.16,212.891C1146.2,214.623 1148.66,216.373 1150.53,218.141C1152.4,219.909 1153.34,221.676 1153.34,223.444C1153.34,225.282 1152.37,226.944 1150.41,228.429C1148.46,229.914 1145.97,231.186 1142.92,232.247C1139.88,233.308 1136.48,234.121 1132.74,234.686C1128.99,235.252 1125.32,235.535 1121.73,235.535C1117.67,235.535 1113.77,235.252 1110.02,234.686C1106.27,234.121 1102.92,233.308 1099.95,232.247C1096.99,231.186 1094.68,229.896 1093.04,228.376C1091.4,226.856 1090.74,225.141 1091.05,223.232L1091.29,221.535C1091.29,221.252 1091.05,221.04 1090.59,220.899C1090.12,220.757 1089.49,220.686 1088.71,220.686C1088.09,220.686 1087.5,220.739 1086.95,220.845C1086.41,220.952 1086.06,221.146 1085.9,221.429C1085.59,221.994 1085.28,222.613 1084.96,223.285C1084.65,223.957 1084.34,224.681 1084.03,225.459C1083.4,226.449 1082.86,227.439 1082.39,228.429C1081.92,229.419 1081.69,230.479 1081.69,231.611C1081.69,233.449 1082.66,235.005 1084.61,236.277C1086.57,237.55 1089.02,238.558 1091.99,239.3C1094.96,240.042 1098.23,240.573 1101.83,240.891C1105.41,241.209 1108.85,241.368 1112.13,241.368C1118.84,241.368 1125.87,240.82 1133.2,239.724C1140.54,238.628 1147.25,237.09 1153.34,235.111C1159.43,233.131 1164.46,230.762 1168.45,228.005C1172.43,225.247 1174.42,222.171 1174.42,218.777Z" style="fill:white;fill-rule:nonzero;"/>
                <path d="M1343.49,224.186C1343.49,222.914 1343.25,221.676 1342.78,220.474L1337.63,220.262C1334.82,222.878 1332.05,225.176 1329.32,227.156C1326.59,229.136 1323.43,230.78 1319.84,232.088C1316.25,233.396 1312.07,234.368 1307.31,235.005C1302.55,235.641 1296.81,235.959 1290.1,235.959C1278.39,235.959 1267.65,234.863 1257.9,232.671C1248.14,230.479 1239.67,227.545 1232.49,223.868C1225.31,220.191 1219.73,215.984 1215.75,211.247C1211.77,206.51 1209.78,201.595 1209.78,196.505C1209.78,191.626 1211.45,187.189 1214.81,183.194C1218.17,179.199 1222.93,175.805 1229.1,173.012C1235.26,170.219 1242.68,168.045 1251.34,166.489C1260.01,164.934 1269.72,164.156 1280.5,164.156C1287.05,164.156 1293.22,164.545 1298.99,165.323C1304.77,166.101 1309.92,167.267 1314.45,168.823C1318.98,170.378 1322.8,172.305 1325.92,174.603C1329.05,176.901 1331.15,179.57 1332.25,182.611C1332.56,183.176 1333.42,183.459 1334.82,183.459C1336.38,183.459 1337.32,183.176 1337.63,182.611C1338.88,179.429 1339.9,176.229 1340.68,173.012C1341.46,169.795 1341.92,166.56 1342.08,163.308C1342.08,162.671 1341.3,162.353 1339.74,162.353C1335.84,162.212 1331.86,162.017 1327.8,161.77C1323.74,161.522 1319.68,161.257 1315.62,160.974C1310.16,160.621 1304.61,160.285 1298.99,159.967C1293.37,159.649 1287.68,159.489 1281.9,159.489C1276.9,159.489 1271.32,159.631 1265.16,159.914C1258.99,160.197 1252.86,160.691 1246.78,161.399C1240.69,162.106 1234.91,163.025 1229.45,164.156C1223.98,165.287 1219.45,166.702 1215.87,168.399C1206.19,172.853 1198.73,177.962 1193.5,183.724C1188.27,189.487 1185.66,195.479 1185.66,201.702C1185.66,207.5 1187.88,212.785 1192.33,217.558C1196.78,222.33 1202.91,226.431 1210.71,229.861C1218.52,233.29 1227.85,235.941 1238.7,237.815C1249.55,239.689 1261.37,240.626 1274.17,240.626C1284.32,240.626 1294.35,240.396 1304.26,239.936C1314.18,239.477 1324.05,238.893 1333.88,238.186C1334.82,238.186 1335.53,238.01 1335.99,237.656C1338.34,235.747 1340.17,233.555 1341.5,231.08C1342.82,228.606 1343.49,226.308 1343.49,224.186Z" style="fill:white;fill-rule:nonzero;"/>
                <path d="M1524.97,163.308L1524.73,161.399C1516.3,161.116 1507.95,161.027 1499.68,161.133C1491.4,161.239 1483.05,161.292 1474.62,161.292C1473.84,161.292 1473.14,161.381 1472.51,161.558C1471.89,161.734 1471.65,161.964 1471.81,162.247C1472.12,163.025 1473.45,163.537 1475.79,163.785C1478.13,164.032 1480.4,164.191 1482.58,164.262C1483.52,164.333 1484.22,164.351 1484.69,164.315C1485.16,164.28 1485.63,164.298 1486.1,164.368C1488.12,164.722 1489.45,165.393 1490.08,166.383C1490.7,167.373 1491.01,168.434 1491.01,169.565L1491.01,174.974C1491.01,176.883 1491.05,178.81 1491.13,180.755C1491.21,182.699 1491.25,184.626 1491.25,186.535L1491.25,191.838C1491.4,195.585 1491.48,199.298 1491.48,202.974L1491.48,214.217C1491.48,217.399 1490.27,220.298 1487.85,222.914C1485.43,225.53 1482.08,227.757 1477.78,229.595C1473.49,231.434 1468.41,232.866 1462.56,233.891C1456.71,234.916 1450.42,235.429 1443.71,235.429C1437,235.429 1430.79,234.934 1425.09,233.944C1419.4,232.954 1414.48,231.54 1410.34,229.702C1406.2,227.863 1402.96,225.671 1400.62,223.126C1398.28,220.58 1397.11,217.717 1397.11,214.535C1397.11,210.717 1397.07,206.934 1396.99,203.186C1396.92,199.439 1396.95,195.656 1397.11,191.838C1397.27,188.02 1397.35,184.237 1397.35,180.489L1397.35,169.141C1397.35,167.02 1398.56,165.606 1400.98,164.899C1403.39,164.191 1406.71,163.732 1410.93,163.52C1412.49,163.449 1413.27,163.131 1413.27,162.565C1413.27,162 1412.49,161.681 1410.93,161.611C1403.12,161.257 1395.39,161.204 1387.74,161.452C1380.1,161.699 1372.44,161.752 1364.8,161.611L1355.9,161.505C1355.12,161.505 1354.41,161.593 1353.79,161.77C1353.16,161.947 1352.93,162.176 1353.09,162.459C1353.4,163.237 1354.73,163.767 1357.07,164.05C1359.41,164.333 1361.67,164.51 1363.86,164.58C1364.8,164.651 1365.5,164.669 1365.97,164.633C1366.43,164.598 1366.9,164.616 1367.37,164.686C1369.4,165.04 1370.73,165.712 1371.35,166.702C1371.98,167.691 1372.29,168.752 1372.29,169.883L1372.29,211.989C1372.29,212.272 1372.41,212.75 1372.64,213.421C1372.87,214.093 1373.11,214.818 1373.34,215.595C1373.58,216.373 1373.85,217.116 1374.16,217.823C1374.48,218.53 1374.79,219.025 1375.1,219.308C1377.75,222.489 1381.34,225.441 1385.87,228.164C1390.4,230.886 1395.63,233.219 1401.56,235.164C1407.49,237.108 1414.01,238.628 1421.11,239.724C1428.22,240.82 1435.67,241.368 1443.48,241.368C1453.78,241.368 1463.07,240.52 1471.34,238.823C1479.62,237.126 1486.68,234.828 1492.53,231.929C1498.39,229.03 1502.88,225.636 1506,221.747C1509.12,217.858 1510.68,213.686 1510.68,209.232L1510.68,169.141C1510.68,167.09 1512.05,165.676 1514.78,164.899C1517.51,164.121 1520.91,163.59 1524.97,163.308Z" style="fill:white;fill-rule:nonzero;"/>
                <path d="M1649.08,224.823C1649.23,224.54 1649.08,224.31 1648.61,224.133C1648.14,223.957 1647.63,223.851 1647.09,223.815C1646.54,223.78 1645.91,223.798 1645.21,223.868C1644.51,223.939 1644,224.08 1643.69,224.292C1640.26,227.545 1635.34,230.161 1628.94,232.141C1622.54,234.121 1615.51,235.111 1607.86,235.111C1600.06,235.111 1593.5,234.05 1588.19,231.929C1582.88,229.808 1580.23,226.873 1580.23,223.126L1580.23,169.247C1580.23,167.479 1581.4,166.101 1583.74,165.111C1586.09,164.121 1589.05,163.697 1592.64,163.838L1595.92,163.944C1597.33,164.015 1598.14,163.75 1598.38,163.149C1598.61,162.548 1598.11,162.176 1596.86,162.035C1592.95,161.469 1588.86,161.239 1584.56,161.345C1580.27,161.452 1576.02,161.505 1571.8,161.505L1539.72,161.505C1538.63,161.505 1537.81,161.646 1537.26,161.929C1536.71,162.212 1536.67,162.53 1537.14,162.883C1537.77,163.59 1538.86,164.05 1540.42,164.262C1541.98,164.474 1543.78,164.616 1545.81,164.686C1546.9,164.757 1548.03,164.845 1549.2,164.952C1550.37,165.058 1551.43,165.27 1552.36,165.588C1553.3,165.906 1554.08,166.419 1554.71,167.126C1555.33,167.833 1555.64,168.787 1555.64,169.989L1555.64,228.535C1555.64,229.737 1555.45,230.868 1555.06,231.929C1554.67,232.989 1554,233.944 1553.07,234.792C1552.13,235.641 1550.8,236.33 1549.09,236.861C1547.37,237.391 1545.11,237.691 1542.3,237.762C1540.73,237.762 1539.91,238.063 1539.84,238.664C1539.76,239.265 1540.5,239.601 1542.06,239.671C1546.28,239.813 1550.49,239.777 1554.71,239.565C1558.92,239.353 1563.29,239.247 1567.82,239.247C1572.19,239.247 1576.48,239.282 1580.7,239.353C1584.91,239.424 1589.21,239.424 1593.58,239.353C1597.79,239.282 1602.01,239.247 1606.22,239.247L1618.63,239.247C1623.16,239.247 1627.73,239.265 1632.33,239.3C1636.94,239.335 1641.58,239.459 1646.27,239.671C1646.58,237.833 1646.89,235.871 1647.2,233.785C1647.52,231.699 1647.98,229.348 1648.61,226.732C1648.61,226.378 1648.65,226.06 1648.73,225.777C1648.8,225.494 1648.92,225.176 1649.08,224.823Z" style="fill:white;fill-rule:nonzero;"/>
                <path d="M1722.14,238.186C1720.73,237.55 1719.17,237.179 1717.45,237.073C1715.74,236.967 1714.02,236.914 1712.3,236.914C1711.52,236.914 1710.51,236.843 1709.26,236.702C1708.01,236.56 1706.99,236.419 1706.21,236.277C1705.75,235.994 1705.24,235.447 1704.69,234.633C1704.14,233.82 1703.64,232.954 1703.17,232.035C1702.7,231.116 1702.31,230.25 1702,229.436C1701.69,228.623 1701.53,228.04 1701.53,227.686L1701.53,169.247C1701.53,167.055 1702.86,165.606 1705.51,164.899C1708.16,164.191 1711.6,163.661 1715.81,163.308C1717.38,163.166 1718.08,162.83 1717.92,162.3C1717.77,161.77 1716.91,161.469 1715.35,161.399C1710.82,161.257 1706.37,161.222 1702,161.292C1697.63,161.363 1693.26,161.399 1688.88,161.399C1684.36,161.399 1679.87,161.381 1675.42,161.345C1670.97,161.31 1666.48,161.363 1661.95,161.505C1660.55,161.575 1659.85,161.893 1659.85,162.459C1659.85,163.025 1660.55,163.343 1661.95,163.414C1666.01,163.626 1669.53,164.138 1672.49,164.952C1675.46,165.765 1676.94,167.232 1676.94,169.353L1676.94,227.262C1676.94,227.969 1676.83,228.835 1676.59,229.861C1676.36,230.886 1675.89,231.893 1675.19,232.883C1674.48,233.873 1673.59,234.722 1672.49,235.429C1671.4,236.136 1670,236.489 1668.28,236.489C1667.81,236.489 1666.52,236.613 1664.41,236.861C1662.31,237.108 1660.86,237.161 1660.08,237.02C1659.46,236.878 1658.83,236.896 1658.21,237.073C1657.58,237.25 1657.12,237.479 1656.8,237.762C1656.49,238.045 1656.34,238.328 1656.34,238.611C1656.34,238.893 1656.65,239.106 1657.27,239.247C1658.36,239.459 1661.68,239.512 1667.22,239.406C1672.77,239.3 1678.97,239.247 1685.84,239.247C1690.06,239.247 1694.19,239.265 1698.25,239.3C1702.31,239.335 1705.98,239.388 1709.26,239.459C1712.54,239.53 1715.19,239.583 1717.22,239.618C1719.25,239.654 1720.26,239.671 1720.26,239.671C1721.51,239.671 1722.33,239.512 1722.72,239.194C1723.11,238.876 1722.92,238.54 1722.14,238.186Z" style="fill:white;fill-rule:nonzero;"/>
                <path d="M1916.73,164.474L1916.26,162.671C1910.64,162.53 1905.02,162.477 1899.4,162.512C1893.78,162.548 1888.24,162.565 1882.78,162.565L1865.92,162.565C1864.67,162.565 1863.85,162.742 1863.46,163.095C1863.07,163.449 1863.34,163.767 1864.28,164.05C1865.06,164.474 1866.11,164.757 1867.44,164.899C1868.77,165.04 1870.29,165.181 1872,165.323C1873.41,165.464 1874.81,165.606 1876.22,165.747C1877.62,165.888 1878.91,166.189 1880.08,166.649C1881.25,167.108 1882.23,167.798 1883.01,168.717C1883.79,169.636 1884.18,170.909 1884.18,172.535C1884.18,180.313 1884.45,188.055 1885,195.762C1885.55,203.469 1885.82,211.212 1885.82,218.989C1885.82,219.555 1885.78,220.103 1885.7,220.633C1885.62,221.164 1885.59,221.712 1885.59,222.277C1844.37,201.702 1802.14,181.409 1758.9,161.399C1757.65,160.974 1756.4,160.974 1755.15,161.399C1754.22,161.823 1753.44,162.229 1752.81,162.618C1752.19,163.007 1751.88,163.484 1751.88,164.05L1751.88,230.868C1751.88,232.636 1750.74,234.068 1748.48,235.164C1746.22,236.26 1743.29,236.984 1739.7,237.338L1736.42,237.656C1735.02,237.798 1734.2,238.116 1733.96,238.611C1733.73,239.106 1734.31,239.424 1735.72,239.565C1739.47,239.919 1743.45,239.972 1747.66,239.724C1751.88,239.477 1756.01,239.388 1760.07,239.459L1789.81,239.777C1791.06,239.777 1791.92,239.583 1792.39,239.194C1792.86,238.805 1792.54,238.469 1791.45,238.186C1789.73,237.691 1788.06,237.32 1786.41,237.073C1784.78,236.825 1783.18,236.631 1781.62,236.489C1780.21,236.348 1778.81,236.154 1777.4,235.906C1776,235.659 1774.79,235.252 1773.77,234.686C1772.76,234.121 1771.94,233.343 1771.31,232.353C1770.69,231.363 1770.38,230.02 1770.38,228.323C1770.38,224.787 1770.22,221.27 1769.91,217.77C1769.59,214.27 1769.28,210.717 1768.97,207.111C1768.66,203.646 1768.35,200.181 1768.03,196.717C1767.72,193.252 1767.57,189.752 1767.57,186.217C1767.57,184.378 1767.8,182.434 1768.27,180.383C1771.08,181.798 1773.42,182.964 1775.29,183.883C1777.17,184.803 1779.43,185.969 1782.08,187.383C1790.98,191.838 1800.04,196.381 1809.25,201.012C1818.46,205.643 1827.79,210.239 1837.23,214.8C1846.67,219.361 1856.28,223.798 1866.03,228.111C1875.79,232.424 1885.66,236.489 1895.65,240.308C1896.59,240.59 1897.57,240.661 1898.58,240.52C1899.6,240.378 1900.18,240.095 1900.34,239.671C1902.37,227.934 1903.27,216.161 1903.03,204.353C1902.8,192.545 1902.68,180.737 1902.68,168.929C1902.68,167.727 1903.89,166.914 1906.31,166.489C1908.73,166.065 1911.19,165.676 1913.69,165.323C1914.15,165.252 1914.66,165.111 1915.21,164.899C1915.75,164.686 1916.26,164.545 1916.73,164.474Z" style="fill:white;fill-rule:nonzero;"/>
                <path d="M2116.24,202.868C2116.24,197.707 2114.49,192.492 2110.97,187.224C2107.46,181.957 2102.11,177.202 2094.93,172.959C2087.75,168.717 2078.7,165.252 2067.77,162.565C2056.84,159.878 2044.04,158.535 2029.37,158.535C2027.18,158.535 2024.88,158.588 2022.46,158.694C2020.04,158.8 2017.74,158.959 2015.55,159.171C2000.87,160.585 1988.38,162.477 1978.08,164.845C1967.78,167.214 1959.35,170.166 1952.79,173.702C1946.24,177.237 1941.47,181.409 1938.51,186.217C1935.54,191.025 1934.06,196.54 1934.06,202.762C1934.06,205.873 1935.31,208.984 1937.81,212.095C1940.3,215.207 1943.66,218.194 1947.87,221.058C1952.09,223.921 1957.05,226.59 1962.74,229.065C1968.44,231.54 1974.49,233.679 1980.89,235.482C1987.29,237.285 1993.93,238.717 2000.8,239.777C2007.66,240.838 2014.3,241.368 2020.7,241.368C2021.64,241.368 2022.81,241.368 2024.21,241.368C2025.77,241.368 2027.3,241.351 2028.78,241.315C2030.26,241.28 2031.67,241.227 2033,241.156C2034.32,241.085 2035.45,241.015 2036.39,240.944C2047.32,239.813 2057.62,238.222 2067.3,236.171C2076.98,234.121 2085.45,231.54 2092.71,228.429C2099.97,225.318 2105.7,221.641 2109.92,217.399C2114.13,213.156 2116.24,208.313 2116.24,202.868ZM2092.59,202.656C2092.59,207.111 2091.18,211.371 2088.38,215.436C2085.57,219.502 2081.47,223.055 2076.08,226.095C2070.7,229.136 2064.02,231.558 2056.06,233.361C2048.1,235.164 2038.89,236.065 2028.43,236.065C2017.34,236.065 2007.47,234.916 1998.81,232.618C1990.14,230.32 1982.84,227.333 1976.91,223.656C1970.98,219.979 1966.49,215.843 1963.45,211.247C1960.4,206.651 1958.88,202.055 1958.88,197.459C1958.88,192.934 1960.32,188.674 1963.21,184.679C1966.1,180.684 1970.32,177.184 1975.86,174.179C1981.4,171.174 1988.19,168.805 1996.23,167.073C2004.27,165.34 2013.52,164.474 2023.98,164.474C2035.06,164.474 2044.86,165.606 2053.37,167.868C2061.88,170.131 2069.06,173.065 2074.91,176.671C2080.76,180.277 2085.18,184.361 2088.14,188.921C2091.11,193.482 2092.59,198.06 2092.59,202.656Z" style="fill:white;fill-rule:nonzero;"/>
            </g>
            <g transform="matrix(0.591604,-1.38778e-17,-1.38778e-17,0.727445,-446.272,-150.834)">
                <path d="M856.418,185.988C854.869,185.415 853.355,184.986 851.876,184.699C850.397,184.413 849.023,184.155 847.755,183.926C845.502,183.582 843.354,183.096 841.311,182.466C839.269,181.835 837.402,180.375 835.712,178.084C834.867,176.938 834.057,175.105 833.282,172.585C832.507,170.065 831.768,167.115 831.063,163.736C830.359,160.356 829.725,156.69 829.162,152.738C828.598,148.786 828.035,144.777 827.472,140.71C826.908,136.643 826.415,132.634 825.993,128.681C825.57,124.729 825.218,121.092 824.936,117.77C824.654,115.25 824.408,112.93 824.197,110.811C823.985,108.691 823.809,107.002 823.668,105.742C822.682,98.181 821.661,90.591 820.605,82.973C819.548,75.355 818.457,67.766 817.33,60.205C817.189,59.404 816.59,58.945 815.534,58.831C814.477,58.716 813.597,58.945 812.893,59.518C809.089,64.215 805.709,69.026 802.751,73.952C799.793,78.878 796.905,83.747 794.088,88.558L789.862,96.119C786.904,101.388 783.946,106.543 780.988,111.584C778.03,116.624 775.142,121.722 772.325,126.877C768.944,132.949 765.564,138.906 762.183,144.748C758.802,150.59 755.281,156.547 751.618,162.619C750.069,160.328 748.308,157.435 746.336,153.941C744.364,150.447 741.617,145.722 738.096,139.765C735.138,134.724 731.968,129.397 728.588,123.784C725.207,118.171 721.827,112.558 718.446,106.944C715.065,101.331 711.755,95.89 708.515,90.62C705.276,85.351 702.247,80.596 699.43,76.358C696.613,72.119 694.077,68.482 691.823,65.446C689.57,62.411 687.738,60.377 686.33,59.346C685.485,58.773 684.64,58.602 683.794,58.831C682.949,59.06 682.456,59.518 682.315,60.205C682.034,61.924 681.646,64.702 681.153,68.539C680.66,72.377 680.062,76.873 679.357,82.028C678.653,87.871 677.843,94.257 676.927,101.188C676.012,108.119 675.096,115.135 674.181,122.238C673.265,129.34 672.314,136.299 671.328,143.115C670.342,149.932 669.427,156.089 668.581,161.588C667.736,167.086 666.926,171.64 666.152,175.249C665.377,178.857 664.778,181.062 664.356,181.864C663.511,183.353 662.489,184.241 661.292,184.528C660.095,184.814 658.721,185.072 657.172,185.301C656.468,185.415 655.376,185.587 653.897,185.816C652.418,186.045 651.678,186.103 651.678,185.988C650.974,186.446 650.727,186.991 650.939,187.621C651.15,188.251 651.819,188.623 652.946,188.737C660.13,189.081 667.349,189.196 674.603,189.081C681.858,188.967 689.077,188.909 696.26,188.909C697.669,188.909 698.479,188.537 698.69,187.792C698.902,187.048 698.444,186.504 697.317,186.16C695.486,185.473 693.901,184.9 692.563,184.442C691.225,183.983 689.992,183.582 688.865,183.239L689.077,183.239C687.668,182.781 686.612,182.38 685.907,182.036C685.203,181.692 684.675,181.234 684.323,180.661C683.97,180.088 683.759,179.287 683.689,178.256C683.618,177.225 683.583,175.735 683.583,173.788L683.583,168.805C683.583,160.9 684.147,152.853 685.273,144.662C686.4,136.471 687.668,128.424 689.077,120.519C689.64,117.426 690.168,114.276 690.661,111.068C691.154,107.861 691.542,104.653 691.823,101.446C693.514,103.966 694.922,106.2 696.049,108.147C697.176,110.095 698.233,111.985 699.219,113.818C700.205,115.651 701.226,117.569 702.282,119.574C703.339,121.579 704.642,123.899 706.191,126.533C712.107,137.187 718.199,147.669 724.468,157.979C730.736,168.289 738.237,178.256 746.97,187.878C747.674,188.337 748.449,188.566 749.294,188.566C750.139,188.566 750.773,188.279 751.196,187.706C753.872,183.239 756.478,178.8 759.014,174.389C761.549,169.979 764.085,165.597 766.62,161.244C772.536,151.049 778.452,140.91 784.368,130.829C790.285,120.748 796.412,110.725 802.751,100.758C803.032,103.279 803.314,105.512 803.596,107.46C803.877,109.407 804.159,111.326 804.441,113.216C804.723,115.106 805.004,117.025 805.286,118.973C805.568,120.92 805.92,123.154 806.343,125.674C807.61,133.922 808.737,142.6 809.723,151.707C810.709,160.814 811.202,169.492 811.202,177.74C811.202,179.229 811.167,180.69 811.097,182.122C811.026,183.554 810.709,185.014 810.146,186.504C809.864,187.076 809.97,187.563 810.463,187.964C810.956,188.365 811.625,188.566 812.47,188.566C819.654,188.909 826.802,189.024 833.916,188.909C841.029,188.795 848.248,188.737 855.573,188.737L856.418,185.988Z" style="fill:white;fill-rule:nonzero;"/>
                <path d="M932.06,46.459C931.778,45.428 931.461,44.311 931.109,43.108C930.757,41.905 930.194,40.731 929.419,39.585C928.644,38.44 927.623,37.495 926.355,36.75C925.088,36.005 923.397,35.633 921.284,35.633C919.735,35.633 918.045,35.977 916.213,36.664C914.382,37.351 912.41,38.211 910.297,39.242C908.184,40.273 906.036,41.418 903.853,42.678C901.67,43.938 899.592,45.199 897.62,46.459C895.648,47.719 893.817,48.893 892.126,49.981C890.436,51.07 888.816,51.9 887.267,52.473C885.858,52.931 885.541,53.618 886.316,54.535C887.091,55.451 888.253,55.795 889.802,55.566C892.478,54.764 895.331,53.905 898.359,52.988C901.388,52.072 904.452,51.213 907.55,50.411C910.649,49.609 913.748,49.008 916.847,48.607C919.946,48.206 922.975,48.12 925.933,48.349L928.891,48.521C929.877,48.635 930.687,48.463 931.321,48.005C931.954,47.547 932.201,47.031 932.06,46.459ZM936.286,112.099C936.99,111.87 937.272,111.756 937.131,111.756C937.131,111.756 936.497,111.87 935.229,112.099L936.286,112.099ZM945.583,167.086L939.878,166.227C938.469,171.153 935.652,174.905 931.426,177.482C927.2,180.06 922.27,181.349 916.636,181.349C914.382,181.349 912.058,181.148 909.663,180.747C907.269,180.346 904.98,179.716 902.796,178.857C900.613,177.998 898.571,176.995 896.669,175.85C894.767,174.704 893.183,173.33 891.915,171.726L891.915,125.502L902.268,125.502C905.367,125.502 908.431,125.588 911.459,125.76C914.488,125.932 917.235,126.218 919.7,126.619C922.165,127.02 923.82,127.564 924.665,128.252C925.369,128.595 925.897,129.254 926.25,130.228C926.602,131.202 926.989,132.204 927.412,133.235L927.2,132.891C927.482,133.808 927.834,134.696 928.257,135.555C928.679,136.414 929.454,137.244 930.581,138.046C931.426,138.619 932.377,138.791 933.433,138.562C934.49,138.333 935.089,137.817 935.229,137.015C935.511,135.182 935.828,133.206 936.18,131.087C936.532,128.968 936.849,126.992 937.131,125.159C937.554,123.211 937.906,121.35 938.187,119.574C938.469,117.799 938.751,115.937 939.033,113.99C939.174,113.417 938.962,112.959 938.399,112.615C937.835,112.271 937.131,112.099 936.286,112.099C935.159,112.443 933.786,112.844 932.166,113.302C930.546,113.76 929.243,114.104 928.257,114.333C926.848,114.906 925.545,115.393 924.348,115.794C923.151,116.195 922.2,116.395 921.496,116.395L891.915,116.395L891.915,72.578L896.352,72.578C897.62,72.578 898.923,72.549 900.261,72.492C901.599,72.434 902.832,72.406 903.959,72.406C905.226,72.291 906.494,72.234 907.762,72.234L911.354,72.234C916.988,72.234 921.566,72.978 925.088,74.468C928.609,75.957 930.581,79.164 931.004,84.09C931.144,85.007 931.708,85.551 932.694,85.723C933.68,85.895 934.666,85.694 935.652,85.121C936.638,84.32 937.448,83.26 938.082,81.942C938.716,80.625 939.209,79.136 939.561,77.475C939.913,75.814 940.195,74.124 940.406,72.406C940.617,70.687 940.864,69.084 941.146,67.594C941.427,67.022 941.568,66.334 941.568,65.532L941.568,63.814C941.85,62.898 941.568,62.239 940.723,61.838C939.878,61.437 938.892,61.408 937.765,61.752C935.511,62.439 931.074,62.926 924.454,63.213C917.833,63.499 910.438,63.642 902.268,63.642C897.056,63.642 891.457,63.613 885.471,63.556C879.484,63.499 874.237,63.356 869.73,63.127C866.631,63.012 863.884,62.955 861.489,62.955L855.573,62.955C854.024,62.955 853.038,63.356 852.615,64.158C852.192,64.96 852.615,65.647 853.883,66.22C855.432,67.022 856.876,67.566 858.214,67.852C859.552,68.138 860.996,68.453 862.546,68.797C864.377,69.141 865.962,69.714 867.3,70.515C868.638,71.317 869.307,73.093 869.307,75.842L869.307,170.523C869.307,172.356 869.166,174.132 868.884,175.85C868.603,177.568 868.074,179.086 867.3,180.404C866.525,181.721 865.398,182.809 863.919,183.668C862.44,184.528 860.503,184.957 858.109,184.957C856.559,184.957 855.714,185.473 855.573,186.504C855.432,187.535 856.137,188.107 857.686,188.222C863.18,188.68 868.744,188.967 874.378,189.081C880.012,189.196 885.858,189.253 891.915,189.253C895.577,189.253 899.169,189.253 902.691,189.253C906.353,189.253 909.875,189.196 913.255,189.081C916.072,189.081 918.678,189.053 921.073,188.995C923.468,188.938 926.003,188.909 928.679,188.909L935.652,188.909C938.047,188.909 940.441,188.967 942.836,189.081C943.258,187.019 943.611,184.671 943.892,182.036C944.174,179.401 944.385,176.995 944.526,174.819C944.667,173.559 944.773,172.241 944.843,170.867C944.914,169.492 945.16,168.232 945.583,167.086Z" style="fill:white;fill-rule:nonzero;"/>
                <path d="M1086.72,65.704L1086.72,61.924C1086.72,61.351 1086.41,60.95 1085.77,60.721C1085.14,60.492 1084.47,60.435 1083.77,60.549C1083.06,60.664 1082.25,60.75 1081.34,60.807C1080.42,60.864 1079.61,61.007 1078.91,61.236C1077.78,61.466 1076.55,61.723 1075.21,62.01C1073.87,62.296 1072.78,62.439 1071.93,62.439L981.502,62.439C980.657,62.439 979.424,62.353 977.804,62.182C976.184,62.01 974.494,61.752 972.733,61.408C970.973,61.065 969.318,60.692 967.768,60.291C966.219,59.89 965.021,59.461 964.176,59.003C963.472,58.773 962.732,58.745 961.958,58.917C961.183,59.089 960.655,59.461 960.373,60.034C960.091,60.95 959.845,61.866 959.633,62.783C959.422,63.699 959.105,64.673 958.683,65.704C957.697,68.224 956.781,70.716 955.936,73.179C955.091,75.642 954.668,77.904 954.668,79.966C954.668,80.539 954.703,81.026 954.774,81.427C954.844,81.828 954.95,82.258 955.091,82.716C955.372,83.518 956.112,83.947 957.309,84.004C958.507,84.062 959.316,83.747 959.739,83.059C961.429,80.081 963.824,77.418 966.923,75.069C970.022,72.721 973.614,71.546 977.699,71.546L1010.45,71.546L1010.45,171.726C1010.45,174.475 1010.34,176.652 1010.13,178.256C1009.92,179.859 1009.39,181.177 1008.55,182.208C1007.7,183.239 1006.43,184.012 1004.74,184.528C1003.05,185.043 1000.73,185.53 997.771,185.988C996.363,186.217 995.729,186.733 995.87,187.535C996.011,188.337 996.785,188.795 998.194,188.909C1006.79,189.138 1015.34,189.196 1023.87,189.081C1032.39,188.967 1040.94,188.909 1049.54,188.909C1050.52,188.909 1051.23,188.709 1051.65,188.308C1052.07,187.907 1052.07,187.42 1051.65,186.847C1050.95,185.702 1049.89,185.014 1048.48,184.785C1047.07,184.556 1045.38,184.384 1043.41,184.27C1042.14,184.155 1040.8,183.983 1039.39,183.754C1037.99,183.525 1036.58,182.838 1035.17,181.692C1035.03,181.578 1034.82,180.948 1034.54,179.802C1034.25,178.657 1034.01,177.396 1033.8,176.022C1033.59,174.647 1033.37,173.301 1033.16,171.984C1032.95,170.666 1032.85,169.836 1032.85,169.492L1032.85,71.89C1033.83,72.005 1034.89,72.062 1036.02,72.062L1039.61,72.062C1040.73,72.062 1042.11,72.033 1043.73,71.976C1045.35,71.919 1046.79,71.833 1048.06,71.718C1049.47,71.604 1050.81,71.518 1052.07,71.461C1053.34,71.403 1054.75,71.375 1056.3,71.375C1062.21,71.375 1067.25,72.234 1071.41,73.952C1075.56,75.671 1078.27,79.164 1079.54,84.434C1079.82,85.236 1080.6,85.637 1081.87,85.637C1083.27,85.637 1084.12,85.236 1084.4,84.434C1085.25,81.456 1085.84,78.391 1086.2,75.241C1086.55,72.091 1086.72,68.912 1086.72,65.704Z" style="fill:white;fill-rule:nonzero;"/>
                <path d="M1262.31,128.939C1262.31,120.577 1260.72,112.128 1257.55,103.594C1254.38,95.059 1249.56,87.355 1243.08,80.482C1236.6,73.609 1228.43,67.995 1218.57,63.642C1208.71,59.289 1197.16,57.112 1183.92,57.112C1181.95,57.112 1179.87,57.198 1177.68,57.37C1175.5,57.542 1173.42,57.8 1171.45,58.143C1158.21,60.435 1146.94,63.499 1137.64,67.337C1128.35,71.174 1120.74,75.957 1114.83,81.685C1108.91,87.413 1104.61,94.171 1101.94,101.961C1099.26,109.751 1097.92,118.686 1097.92,128.767C1097.92,133.808 1099.05,138.848 1101.3,143.889C1103.56,148.929 1106.59,153.769 1110.39,158.409C1114.19,163.048 1118.66,167.373 1123.81,171.382C1128.95,175.392 1134.4,178.857 1140.18,181.778C1145.96,184.699 1151.94,187.019 1158.14,188.737C1164.34,190.456 1170.33,191.315 1176.1,191.315C1176.94,191.315 1178,191.315 1179.27,191.315C1180.68,191.315 1182.05,191.286 1183.39,191.229C1184.73,191.172 1186,191.086 1187.19,190.971C1188.39,190.857 1189.41,190.742 1190.26,190.628C1200.12,188.795 1209.41,186.217 1218.15,182.895C1226.88,179.573 1234.52,175.392 1241.07,170.351C1247.62,165.311 1252.8,159.354 1256.6,152.48C1260.4,145.607 1262.31,137.76 1262.31,128.939ZM1240.97,128.595C1240.97,135.813 1239.7,142.715 1237.16,149.302C1234.63,155.889 1230.93,161.645 1226.07,166.571C1221.21,171.497 1215.19,175.42 1208.01,178.342C1200.82,181.263 1192.51,182.723 1183.07,182.723C1173.07,182.723 1164.16,180.862 1156.34,177.139C1148.53,173.416 1141.94,168.576 1136.59,162.619C1131.24,156.662 1127.19,149.96 1124.44,142.514C1121.69,135.068 1120.32,127.622 1120.32,120.176C1120.32,112.844 1121.62,105.942 1124.23,99.47C1126.83,92.997 1130.64,87.327 1135.64,82.458C1140.64,77.589 1146.77,73.752 1154.02,70.945C1161.28,68.138 1169.62,66.735 1179.06,66.735C1189.06,66.735 1197.9,68.568 1205.58,72.234C1213.25,75.9 1219.73,80.654 1225.01,86.496C1230.3,92.338 1234.28,98.954 1236.95,106.343C1239.63,113.732 1240.97,121.149 1240.97,128.595Z" style="fill:white;fill-rule:nonzero;"/>
                <path d="M1426.69,123.269L1426.69,116.911C1426.69,114.505 1426.55,112.214 1426.27,110.037C1425.85,105.799 1424.3,101.618 1421.62,97.493C1418.94,93.369 1415.6,89.475 1411.58,85.809C1407.57,82.143 1402.95,78.792 1397.74,75.756C1392.53,72.721 1387.14,70.086 1381.58,67.852C1376.02,65.618 1370.45,63.871 1364.89,62.611C1359.32,61.351 1354.08,60.721 1349.15,60.721C1345.62,60.721 1341.89,60.75 1337.95,60.807C1334,60.864 1330.2,61.007 1326.54,61.236C1322.59,61.466 1318.79,61.666 1315.13,61.838C1311.47,62.01 1307.73,62.096 1303.93,62.096C1300.83,62.096 1297.84,62.038 1294.95,61.924C1292.06,61.809 1289.07,61.637 1285.97,61.408C1283.58,61.294 1281.11,61.179 1278.58,61.065C1276.04,60.95 1273.51,60.893 1270.97,60.893C1270.12,60.893 1269.45,61.122 1268.96,61.58C1268.47,62.038 1268.43,62.554 1268.86,63.127C1269.28,64.043 1270.12,64.644 1271.39,64.931C1272.66,65.217 1274.14,65.475 1275.83,65.704C1276.82,65.819 1277.87,65.991 1279,66.22C1280.12,66.449 1281.18,66.85 1282.17,67.422C1283.15,67.995 1283.96,68.797 1284.6,69.828C1285.23,70.859 1285.55,72.234 1285.55,73.952L1285.55,168.977C1285.55,171.497 1285.41,173.645 1285.13,175.42C1284.84,177.196 1284.25,178.685 1283.33,179.888C1282.41,181.091 1281.11,182.093 1279.42,182.895C1277.73,183.697 1275.48,184.327 1272.66,184.785C1271.25,185.014 1270.65,185.587 1270.86,186.504C1271.08,187.42 1271.88,187.878 1273.29,187.878C1278.93,187.649 1284.6,187.678 1290.3,187.964C1296.01,188.251 1301.68,188.566 1307.31,188.909C1312.1,189.253 1316.96,189.539 1321.89,189.768C1326.82,189.998 1331.75,190.112 1336.68,190.112C1350.2,190.112 1362.49,188.766 1373.55,186.074C1384.61,183.382 1394.08,179.287 1401.97,173.788C1409.86,168.289 1415.95,161.359 1420.25,152.996C1424.54,144.633 1426.69,134.724 1426.69,123.269ZM1404.72,129.626C1404.72,138.333 1403.03,145.951 1399.64,152.48C1396.26,159.01 1391.58,164.423 1385.59,168.719C1379.61,173.015 1372.39,176.251 1363.94,178.427C1355.49,180.604 1346.19,181.692 1336.05,181.692C1332.24,181.692 1327.98,181.377 1323.26,180.747C1318.55,180.117 1314.57,178.886 1311.33,177.053C1310.62,176.595 1310.02,175.735 1309.53,174.475C1309.04,173.215 1308.65,171.869 1308.37,170.437C1308.09,169.005 1307.91,167.545 1307.84,166.055C1307.77,164.566 1307.73,163.363 1307.73,162.447L1307.73,71.546C1311.11,70.63 1314.53,70 1317.98,69.656C1321.43,69.313 1324.99,69.141 1328.65,69.141C1339.78,69.141 1350.03,70.573 1359.39,73.437C1368.76,76.301 1376.79,80.339 1383.48,85.551C1390.17,90.763 1395.38,97.093 1399.12,104.539C1402.85,111.985 1404.72,120.347 1404.72,129.626Z" style="fill:white;fill-rule:nonzero;"/>
                <path d="M1602.48,128.939C1602.48,120.577 1600.9,112.128 1597.73,103.594C1594.56,95.059 1589.74,87.355 1583.26,80.482C1576.78,73.609 1568.61,67.995 1558.75,63.642C1548.89,59.289 1537.34,57.112 1524.1,57.112C1522.12,57.112 1520.05,57.198 1517.86,57.37C1515.68,57.542 1513.6,57.8 1511.63,58.143C1498.39,60.435 1487.12,63.499 1477.82,67.337C1468.53,71.174 1460.92,75.957 1455,81.685C1449.09,87.413 1444.79,94.171 1442.11,101.961C1439.44,109.751 1438.1,118.686 1438.1,128.767C1438.1,133.808 1439.23,138.848 1441.48,143.889C1443.73,148.929 1446.76,153.769 1450.57,158.409C1454.37,163.048 1458.84,167.373 1463.98,171.382C1469.12,175.392 1474.58,178.857 1480.36,181.778C1486.13,184.699 1492.12,187.019 1498.32,188.737C1504.52,190.456 1510.5,191.315 1516.28,191.315C1517.12,191.315 1518.18,191.315 1519.45,191.315C1520.86,191.315 1522.23,191.286 1523.57,191.229C1524.9,191.172 1526.17,191.086 1527.37,190.971C1528.57,190.857 1529.59,190.742 1530.43,190.628C1540.29,188.795 1549.59,186.217 1558.32,182.895C1567.06,179.573 1574.7,175.392 1581.25,170.351C1587.8,165.311 1592.98,159.354 1596.78,152.48C1600.58,145.607 1602.48,137.76 1602.48,128.939ZM1581.14,128.595C1581.14,135.813 1579.88,142.715 1577.34,149.302C1574.8,155.889 1571.11,161.645 1566.25,166.571C1561.39,171.497 1555.37,175.42 1548.18,178.342C1541,181.263 1532.69,182.723 1523.25,182.723C1513.25,182.723 1504.34,180.862 1496.52,177.139C1488.7,173.416 1482.12,168.576 1476.77,162.619C1471.41,156.662 1467.36,149.96 1464.62,142.514C1461.87,135.068 1460.5,127.622 1460.5,120.176C1460.5,112.844 1461.8,105.942 1464.4,99.47C1467.01,92.997 1470.81,87.327 1475.82,82.458C1480.82,77.589 1486.94,73.752 1494.2,70.945C1501.45,68.138 1509.8,66.735 1519.24,66.735C1529.24,66.735 1538.08,68.568 1545.75,72.234C1553.43,75.9 1559.91,80.654 1565.19,86.496C1570.47,92.338 1574.45,98.954 1577.13,106.343C1579.81,113.732 1581.14,121.149 1581.14,128.595Z" style="fill:white;fill-rule:nonzero;"/>
            </g>
            <g>
                <g transform="matrix(1,0,0,1,-1422.14,-1010.64)">
                    <path d="M936.407,949.304L1329.6,949.304" style="fill:none;stroke:white;stroke-width:14.38px;"/>
                </g>
                <g transform="matrix(1,0,0,1,-388.948,-1010.64)">
                    <path d="M936.407,949.304L1329.6,949.304" style="fill:none;stroke:white;stroke-width:14.38px;"/>
                </g>
            </g>
        </g>
    </g>
</svg>
